{"title":"Big Hero 6 2014 720p HDCAM FIRST ENG x264 Pimp4003","uid":11467235,"size":1737109024,"categoryP":"video","categoryS":"movies","magnet":"?xt=urn:btih:b6ab527d80e89480961ea92b5bc51fcaca86f42d&amp;dn=Big+Hero+6+2014+720p+HDCAM+FIRST+ENG+x264+Pimp4003&amp;tr=udp%3A%2F%2Ftracker.openbittorrent.com%3A80&amp;tr=udp%3A%2F%2Fopen.demonii.com%3A1337&amp;tr=udp%3A%2F%2Ftracker.coppersurfer.tk%3A6969&amp;tr=udp%3A%2F%2Fexodus.desync.com%3A6969","seeders":64,"leechers":1,"uploader":"shawnmurthy","files":-1,"time":1416045966,"description":"FOR SCREENSHOTS AND FASTER DOWNLOAD SPEEDS PLEASE VISIT MY HOME SITE.....SOURCE IS PIMP4003....THE SOURCE IS 3D SO IT GOES IN AND OUT FOCUS BUT NOT AS MUCH...CHANGED THE CONTRAST AND MADE IT BETTER ALSO REMOVED SOME FLICKERING...AUDIO WAS OUT OF SYNC AND HAD ECHO FIXED THAT AS WELL........ENJOY\n\nBig Hero 6 2014 720p HDCAM FIRST ENG x264 Pimp4003\n\nENJOY\n\nPIMP4003\n\nVideo\nID                                       : 1\nFormat                                   : MPEG-4 Visual\nFormat profile                           : Simple@L3\nFormat settings, BVOP                    : No\nFormat settings, QPel                    : No\nFormat settings, GMC                     : No warppoints\nFormat settings, Matrix                  : Default (H.263)\nCodec ID                                 : 20\nDuration                                 : 1h 31mn\nBit rate                                 : 2 397 Kbps\nWidth                                    : 1 280 pixels\nHeight                                   : 536 pixels\nDisplay aspect ratio                     : 2.40:1\nFrame rate mode                          : Variable\nFrame rate                               : 59.940 fps\nMinimum frame rate                       : 59.916 fps\nMaximum frame rate                       : 60.157 fps\nColor space                              : YUV\nChroma subsampling                       : 4:2:0\nBit depth                                : 8 bits\nScan type                                : Progressive\nCompression mode                         : Lossy\nBits/(Pixel*Frame)                       : 0.058\nStream size                              : 1.53 GiB (95%)\nWriting library                          : ZJMedia MPEG Encoder\n\nAudio\nID                                       : 2\nFormat                                   : AAC\nFormat/Info                              : Advanced Audio Codec\nFormat profile                           : LC\nCodec ID                                 : 40\nDuration                                 : 1h 31mn\nBit rate mode                            : Variable\nBit rate                                 : 128 Kbps\nChannel(s)                               : 2 channels\nChannel positions                        : Front: L R\nSampling rate                            : 48.0 KHz\nCompression mode                         : Lossy\nStream size                              : 83.6 MiB (5%)","torrent":{"xt":"urn:btih:b6ab527d80e89480961ea92b5bc51fcaca86f42d","amp;dn":"Big+Hero+6+2014+720p+HDCAM+FIRST+ENG+x264+Pimp4003","amp;tr":["udp%3A%2F%2Ftracker.openbittorrent.com%3A80","udp%3A%2F%2Fopen.demonii.com%3A1337","udp%3A%2F%2Ftracker.coppersurfer.tk%3A6969","udp%3A%2F%2Fexodus.desync.com%3A6969"],"infoHash":"b6ab527d80e89480961ea92b5bc51fcaca86f42d","infoHashBuffer":{"type":"Buffer","data":[182,171,82,125,128,232,148,128,150,30,169,43,91,197,31,202,202,134,244,45]},"announce":[],"urlList":[]}}